<?xml version="1.0" encoding="utf-8"?>
<!-- Generator: Adobe Illustrator 19.1.0, SVG Export Plug-In . SVG Version: 6.00 Build 0)  -->
<svg version="1.1" id="Layer_1" xmlns="http://www.w3.org/2000/svg" xmlns:xlink="http://www.w3.org/1999/xlink" x="0px" y="0px"
	 viewBox="0 0 652.1 82.7" enable-background="new 0 0 652.1 82.7" xml:space="preserve">
<g>
	<g>
		<path fill="#00AEEF" d="M13.8,73.8c-2.8,0-5.4-0.9-7.5-2.5l-0.5-0.4l-0.1-0.6c0-0.4-0.1-0.9-0.1-1.4V25.7c0-3.3,1.3-6.4,3.6-8.8
			c2.3-2.3,5.4-3.5,8.7-3.5h43.2c2.8,0,5.4,0.9,7.5,2.5c3,2.3,4.8,5.9,4.8,9.8v4.1H63.2v-4.1c0-1.1-0.9-2-2-2H17.9c-1.1,0-2,0.9-2,2
			v43.2c0,0.9,0.7,1.7,1.6,2l12.6,3H13.8z M63.1,68.9l0-14.6h-16V44h22.2v17.5c0,3.3-1.3,6.4-3.6,8.8l-3.5,3.5L63.1,68.9z"/>
		<path d="M61.1,14.9c2.5,0,4.8,0.8,6.6,2.2c2.6,1.9,4.2,5,4.2,8.6v2.6h-7.3v-2.6c0-1.9-1.6-3.5-3.5-3.5H17.9
			c-1.9,0-3.5,1.6-3.5,3.5v43.2c0,1.6,1.2,3.1,2.7,3.4h-3.4c-2.5,0-4.8-0.8-6.6-2.2c0-0.4-0.1-0.8-0.1-1.2V25.7c0-3,1.2-5.7,3.2-7.7
			c2-1.9,4.6-3.1,7.6-3.1H61.1 M67.8,45.5v16c0,3-1.2,5.7-3.2,7.7c0-0.1,0-0.2,0-0.3v-16h-16v-7.4H67.8 M61.1,11.9H17.9
			c-3.7,0-7.1,1.4-9.7,4c-2.6,2.6-4.1,6.1-4.1,9.8v43.2c0,0.5,0,1,0.1,1.5l0.1,1.3l1,0.8c2.4,1.9,5.3,2.8,8.4,2.8h3.4h26l-25.3-5.9
			c-0.2,0-0.4-0.3-0.4-0.5V25.7c0-0.2,0.3-0.5,0.5-0.5h43.2c0.2,0,0.5,0.3,0.5,0.5v2.6v3h3h7.3h3v-3v-2.6c0-4.4-2-8.4-5.4-11
			C67.2,12.9,64.2,11.9,61.1,11.9L61.1,11.9z M70.8,42.5h-3H48.6h-3v3v7.4v3h3h13v12.9l-1.9,9.4l7-6.9c2.6-2.6,4.1-6.1,4.1-9.8v-16
			V42.5L70.8,42.5z"/>
	</g>
	<g>
		<path fill="#00AEEF" d="M17.9,81.2c-6.3,0-11.6-4.7-12.2-10.9l-0.4-3.5l2.8,2.1c1.6,1.2,3.6,1.9,5.7,1.9h3.5l0.2,0
			c0.1,0,0.3,0,0.4,0h43.2c1,0,1.9-0.8,2-1.8l0-0.5l0.4-0.4c1.8-1.7,2.7-4.1,2.7-6.6V44h7.1v24.9c0,6.9-5.4,12.3-12.3,12.3H17.9z"/>
		<path d="M71.9,45.5v23.4c0,6-4.8,10.8-10.8,10.8H17.9c-5.6,0-10.1-4.1-10.7-9.6c1.8,1.4,4.1,2.2,6.6,2.2h3.4
			c0.3,0.1,0.5,0.1,0.8,0.1h43.2c1.8,0,3.3-1.5,3.5-3.2c2-2,3.2-4.7,3.2-7.7v-16H71.9 M74.9,42.5h-3h-4.1h-3v3v16
			c0,2.1-0.8,4.1-2.3,5.6l-0.8,0.8l-0.1,1.1c0,0.2-0.3,0.5-0.5,0.5H17.9c0,0-0.1,0-0.1,0l-0.3-0.1h-0.4h-3.4c-1.8,0-3.4-0.6-4.8-1.6
			l-5.6-4.3l0.8,7c0.8,7,6.7,12.3,13.7,12.3h43.2c7.7,0,13.8-6.1,13.8-13.8V45.5V42.5L74.9,42.5z"/>
	</g>
	<g>
		<path fill="#00AEEF" d="M80,81.2V38.4C80,31.5,85.5,26,92.4,26h30.8v10.4H92.4c-1.1,0-2,0.9-2,2v42.8H80z"/>
		<path d="M121.7,27.5v7.4H92.4c-1.9,0-3.5,1.6-3.5,3.5v41.3h-7.4V38.4c0-6,4.9-10.9,10.9-10.9H121.7 M124.7,24.5h-3H92.4
			c-7.7,0-13.9,6.2-13.9,13.9v41.3v3h3h7.4h3v-3V38.4c0-0.2,0.3-0.5,0.5-0.5h29.3h3v-3v-7.4V24.5L124.7,24.5z"/>
	</g>
	<g>
		<path fill="#00AEEF" d="M138.4,81.2c-6.8,0-12.4-5.6-12.4-12.4V48.4h45.7v-10c0-1.1-0.9-2-2-2h-43.7V26h43.7
			c6.9,0,12.5,5.6,12.5,12.4v42.8H138.4z M136.4,68.8c0,1.1,0.9,2,2,2h33.3v-12h-35.3V68.8z"/>
		<path d="M169.8,27.5c6.1,0,11,4.9,11,10.9v41.3h-42.3c-6,0-10.9-4.9-10.9-10.9V49.9h45.7V38.4c0-1.9-1.5-3.5-3.5-3.5h-42.2v-7.4
			H169.8 M138.4,72.3h34.8v-15h-38.3v11.5C134.9,70.7,136.6,72.3,138.4,72.3 M169.8,24.5h-42.2h-3v3v7.4v3h3h42.2
			c0.3,0,0.5,0.3,0.5,0.5v8.5h-42.7h-3v3v18.9c0,7.7,6.2,13.9,13.9,13.9h42.3h3v-3V38.4C183.7,30.7,177.5,24.5,169.8,24.5
			L169.8,24.5z M137.9,60.3h32.3v9h-31.8c-0.2,0-0.5-0.3-0.5-0.5V60.3L137.9,60.3z"/>
	</g>
	<g>
		<path fill="#00AEEF" d="M198.4,81.2c-6.9,0-12.5-5.6-12.5-12.4V38.4c0-6.8,5.6-12.4,12.5-12.4h33.3V8.9h10.4v72.3H198.4z
			 M198.4,36.4c-1.1,0-2,0.9-2,2v30.4c0,1.1,0.9,2,2,2h31.3c1.1,0,2-0.9,2-2V38.4c0-1.1-0.9-2-2-2H198.4z"/>
		<path d="M240.6,10.4v69.3h-42.2c-6.1,0-11-4.9-11-10.9V38.4c0-6,4.9-10.9,11-10.9h34.8V10.4H240.6 M198.4,72.3h31.3
			c1.9,0,3.5-1.6,3.5-3.5V38.4c0-1.9-1.6-3.5-3.5-3.5h-31.3c-1.9,0-3.5,1.6-3.5,3.5v30.4C194.9,70.7,196.5,72.3,198.4,72.3
			 M243.6,7.4h-3h-7.4h-3v3v14.1h-31.8c-7.7,0-14,6.2-14,13.9v30.4c0,7.7,6.3,13.9,14,13.9h42.2h3v-3V10.4V7.4L243.6,7.4z
			 M198.4,69.3c-0.2,0-0.5-0.3-0.5-0.5V38.4c0-0.2,0.3-0.5,0.5-0.5h31.3c0.2,0,0.5,0.3,0.5,0.5v30.4c0,0.2-0.3,0.5-0.5,0.5H198.4
			L198.4,69.3z"/>
	</g>
	<g>
		<path fill="#00AEEF" d="M259,81.2c-6.8,0-12.4-5.6-12.4-12.4V26h10.4v42.8c0,1.1,0.9,2,2,2h31.3c1.1,0,2.1-0.9,2.1-2V26h10.4v42.8
			c0,6.8-5.6,12.4-12.5,12.4H259z"/>
		<path d="M301.3,27.5v41.3c0,6-4.9,10.9-11,10.9H259c-6,0-10.9-4.9-10.9-10.9V27.5h7.4v41.3c0,1.9,1.6,3.5,3.5,3.5h31.3
			c2,0,3.6-1.6,3.6-3.5V27.5H301.3 M304.3,24.5h-3h-7.4h-3v3v41.3c0,0.2-0.3,0.5-0.6,0.5H259c-0.2,0-0.5-0.3-0.5-0.5V27.5v-3h-3
			h-7.4h-3v3v41.3c0,7.7,6.2,13.9,13.9,13.9h31.3c7.7,0,14-6.2,14-13.9V27.5V24.5L304.3,24.5z"/>
	</g>
	<g>
		<path fill="#00AEEF" d="M379.9,81.2V38.4c0-1.1-1-2-2.1-2h-21.7c-1.1,0-2,0.9-2,2v42.8h-10.5V38.4c0-1.1-1-2-2-2h-21.8
			c-1.1,0-2,0.9-2,2v42.8h-10.5V26h70.4c6.9,0,12.4,5.4,12.4,12.4v42.8H379.9z"/>
		<path d="M377.8,27.5c6.1,0,10.9,4.9,10.9,10.9v41.3h-7.3V38.4c0-1.9-1.6-3.5-3.6-3.5h-21.7c-2,0-3.5,1.6-3.5,3.5v41.3h-7.5V38.4
			c0-1.9-1.6-3.5-3.5-3.5h-21.8c-1.9,0-3.5,1.6-3.5,3.5v41.3h-7.5V27.5H377.8 M377.8,24.5h-68.9h-3v3v52.2v3h3h7.5h3v-3V38.4
			c0-0.2,0.3-0.5,0.5-0.5h21.8c0.2,0,0.5,0.3,0.5,0.5v41.3v3h3h7.5h3v-3V38.4c0-0.2,0.2-0.5,0.5-0.5h21.7c0.3,0,0.6,0.3,0.6,0.5
			v41.3v3h3h7.3h3v-3V38.4C391.7,30.6,385.6,24.5,377.8,24.5L377.8,24.5z"/>
	</g>
	<g>
		<path fill="#00AEEF" d="M477.8,81.2V57.5h-47.2v23.7h-10.3V25.7c0-6.9,5.4-12.3,12.3-12.3h43.2c6.9,0,12.3,5.4,12.3,12.3v55.5
			H477.8z M477.8,47.2V25.7c0-1.1-0.9-2-2-2h-43.2c-1.1,0-2,1-2,2v21.5H477.8z"/>
		<path d="M475.8,14.9c6,0,10.8,4.8,10.8,10.8v54h-7.3V56h-50.2v23.7h-7.3v-54c0-6,4.8-10.8,10.8-10.8H475.8 M429.1,48.7h50.2v-23
			c0-1.9-1.6-3.5-3.5-3.5h-43.2c-1.9,0-3.5,1.6-3.5,3.5V48.7 M475.8,11.9h-43.2c-7.7,0-13.8,6.1-13.8,13.8v54v3h3h7.3h3v-3V59h44.2
			v20.7v3h3h7.3h3v-3v-54C489.6,17.9,483.5,11.9,475.8,11.9L475.8,11.9z M432.1,45.7v-20c0-0.2,0.3-0.5,0.5-0.5h43.2
			c0.2,0,0.5,0.3,0.5,0.5v20H432.1L432.1,45.7z"/>
	</g>
	<g>
		<path fill="#00AEEF" d="M541,81.2V38.4c0-1.1-0.9-2-2-2h-31.3c-1.1,0-2.1,0.9-2.1,2v42.8h-10.4V26h43.8c6.8,0,12.4,5.6,12.4,12.4
			v42.8H541z"/>
		<path d="M538.9,27.5c6,0,10.9,4.9,10.9,10.9v41.3h-7.4V38.4c0-1.9-1.6-3.5-3.5-3.5h-31.3c-2,0-3.6,1.6-3.6,3.5v41.3h-7.4V27.5
			H538.9 M538.9,24.5h-42.3h-3v3v52.2v3h3h7.4h3v-3V38.4c0-0.2,0.3-0.5,0.6-0.5h31.3c0.2,0,0.5,0.3,0.5,0.5v41.3v3h3h7.4h3v-3V38.4
			C552.8,30.7,546.6,24.5,538.9,24.5L538.9,24.5z"/>
	</g>
	<g>
		<path fill="#00AEEF" d="M570.1,81.2c-6.9,0-12.4-5.4-12.4-12.4V8.9h10.4V26h22.6v10.4h-22.6v32.4c0,1.1,0.9,2,2,2h20.6v10.4H570.1
			z"/>
		<path d="M566.6,10.4v17.1h22.6v7.4h-22.6v33.9c0,1.9,1.6,3.5,3.5,3.5h19.1v7.4h-19.1c-6.1,0-10.9-4.9-10.9-10.9V10.4H566.6
			 M569.6,7.4h-3h-7.4h-3v3v58.4c0,7.8,6.1,13.9,13.9,13.9h19.1h3v-3v-7.4v-3h-3h-19.1c-0.2,0-0.5-0.3-0.5-0.5V37.9h19.6h3v-3v-7.4
			v-3h-3h-19.6V10.4V7.4L569.6,7.4z"/>
	</g>
	<g>
		<path fill="#00AEEF" d="M606.8,81.2c-6.8,0-12.4-5.6-12.4-12.4V38.4c0-6.8,5.6-12.4,12.4-12.4h31.3c6.9,0,12.5,5.6,12.5,12.4v20.4
			h-45.8v10c0,1.1,0.9,2,2,2h43.8v10.4H606.8z M640.1,48.4v-10c0-1.1-0.9-2-2-2h-31.3c-1.1,0-2,0.9-2,2v10H640.1z"/>
		<path d="M638.1,27.5c6.1,0,11,4.9,11,10.9v18.9h-45.8v11.5c0,1.9,1.6,3.5,3.5,3.5h42.3v7.4h-42.3c-6,0-10.9-4.9-10.9-10.9V38.4
			c0-6,4.9-10.9,10.9-10.9H638.1 M603.3,49.9h38.3V38.4c0-1.9-1.5-3.5-3.5-3.5h-31.3c-1.9,0-3.5,1.6-3.5,3.5V49.9 M638.1,24.5h-31.3
			c-7.7,0-13.9,6.2-13.9,13.9v30.4c0,7.7,6.2,13.9,13.9,13.9h42.3h3v-3v-7.4v-3h-3h-42.3c-0.2,0-0.5-0.3-0.5-0.5v-8.5h42.8h3v-3
			V38.4C652.1,30.7,645.8,24.5,638.1,24.5L638.1,24.5z M606.3,46.9v-8.5c0-0.2,0.3-0.5,0.5-0.5h31.3c0.3,0,0.5,0.3,0.5,0.5v8.5
			H606.3L606.3,46.9z"/>
	</g>
</g>
<g>
	<g>
		<path fill="#FFFFFF" d="M13.8,73.8c-2.8,0-5.4-0.9-7.5-2.5c-3-2.3-4.8-5.9-4.8-9.8V18.3C1.5,11.4,6.9,6,13.8,6H57
			c6.3,0,11.6,4.7,12.2,10.9c0,0.4,0.1,0.9,0.1,1.4v4.1H59v-4.1c0-0.9-0.7-1.7-1.6-2c-0.1,0-0.3-0.1-0.4-0.1H13.8
			c-1,0-1.9,0.8-2,1.8l0,0.1l0,0.1l0,43.2c0,1.1,0.9,2,2,2H57c1.1,0,2-0.9,2-2V47H43V36.6h26.3v24.9c0,3.3-1.3,6.4-3.6,8.8
			c-2.3,2.3-5.4,3.5-8.7,3.5H13.8z"/>
		<path d="M57,7.5c5.6,0,10.2,4.2,10.7,9.6c0,0.4,0.1,0.8,0.1,1.2v2.6h-7.3v-2.6c0-1.6-1.2-3.1-2.7-3.4c-0.3-0.1-0.5-0.1-0.8-0.1
			H13.8c-1.8,0-3.3,1.4-3.5,3.2c0,0.1,0,0.2,0,0.3v43.2c0,1.9,1.6,3.5,3.5,3.5H57c1.9,0,3.5-1.6,3.5-3.5v-16h-16v-7.4h23.3v23.4
			c0,3-1.2,5.7-3.2,7.7c-2,1.9-4.6,3.1-7.6,3.1H13.8c-2.5,0-4.8-0.8-6.6-2.2c-2.6-2-4.2-5-4.2-8.6V18.3c0-6,4.8-10.8,10.8-10.8H57
			 M57,4.5H13.8C6.1,4.5,0,10.6,0,18.3v43.2c0,4.4,2,8.4,5.4,11c2.4,1.8,5.3,2.8,8.4,2.8H57c3.7,0,7.1-1.4,9.7-4
			c2.6-2.6,4.1-6.1,4.1-9.8V38.1v-3h-3H44.5h-3v3v7.4v3h3h13v13c0,0.2-0.3,0.5-0.5,0.5H13.8c-0.2,0-0.5-0.3-0.5-0.5V18.3l0-0.1
			c0-0.2,0.3-0.5,0.5-0.5H57c0,0,0.1,0,0.1,0c0.2,0.1,0.4,0.3,0.4,0.5v2.6v3h3h7.3h3v-3v-2.6c0-0.5,0-1-0.1-1.5
			C70,9.8,64.1,4.5,57,4.5L57,4.5z"/>
	</g>
	<g>
		<path fill="#FFFFFF" d="M75.8,73.8V31c0-6.8,5.6-12.4,12.4-12.4h30.8V29H88.2c-1.1,0-2,0.9-2,2v42.8H75.8z"/>
		<path d="M117.6,20.1v7.4H88.2c-1.9,0-3.5,1.6-3.5,3.5v41.3h-7.4V31c0-6,4.9-10.9,10.9-10.9H117.6 M120.6,17.1h-3H88.2
			c-7.7,0-13.9,6.2-13.9,13.9v41.3v3h3h7.4h3v-3V31c0-0.2,0.3-0.5,0.5-0.5h29.3h3v-3v-7.4V17.1L120.6,17.1z"/>
	</g>
	<g>
		<path fill="#FFFFFF" d="M134.3,73.8c-6.8,0-12.4-5.6-12.4-12.4V41h45.7V31c0-1.1-0.9-2-2-2h-43.7V18.6h43.7
			c6.9,0,12.5,5.6,12.5,12.4v42.8H134.3z M132.3,61.4c0,1.1,0.9,2,2,2h33.3v-12h-35.3V61.4z"/>
		<path d="M165.6,20.1c6.1,0,11,4.9,11,10.9v41.3h-42.3c-6,0-10.9-4.9-10.9-10.9V42.5h45.7V31c0-1.9-1.5-3.5-3.5-3.5h-42.2v-7.4
			H165.6 M134.3,64.9h34.8v-15h-38.3v11.5C130.8,63.3,132.4,64.9,134.3,64.9 M165.6,17.1h-42.2h-3v3v7.4v3h3h42.2
			c0.3,0,0.5,0.3,0.5,0.5v8.5h-42.7h-3v3v18.9c0,7.7,6.2,13.9,13.9,13.9h42.3h3v-3V31C179.6,23.3,173.3,17.1,165.6,17.1L165.6,17.1z
			 M133.8,52.9h32.3v9h-31.8c-0.2,0-0.5-0.3-0.5-0.5V52.9L133.8,52.9z"/>
	</g>
	<g>
		<path fill="#FFFFFF" d="M194.3,73.8c-6.9,0-12.5-5.6-12.5-12.4V31c0-6.8,5.6-12.4,12.5-12.4h33.3V1.5H238v72.3H194.3z M194.3,29
			c-1.1,0-2,0.9-2,2v30.4c0,1.1,0.9,2,2,2h31.3c1.1,0,2-0.9,2-2V31c0-1.1-0.9-2-2-2H194.3z"/>
		<path d="M236.5,3v69.3h-42.2c-6.1,0-11-4.9-11-10.9V31c0-6,4.9-10.9,11-10.9h34.8V3H236.5 M194.3,64.9h31.3c1.9,0,3.5-1.6,3.5-3.5
			V31c0-1.9-1.6-3.5-3.5-3.5h-31.3c-1.9,0-3.5,1.6-3.5,3.5v30.4C190.7,63.3,192.4,64.9,194.3,64.9 M239.5,0h-3h-7.4h-3v3v14.1h-31.8
			c-7.7,0-14,6.2-14,13.9v30.4c0,7.7,6.3,13.9,14,13.9h42.2h3v-3V3V0L239.5,0z M194.3,61.9c-0.2,0-0.5-0.3-0.5-0.5V31
			c0-0.2,0.3-0.5,0.5-0.5h31.3c0.2,0,0.5,0.3,0.5,0.5v30.4c0,0.2-0.3,0.5-0.5,0.5H194.3L194.3,61.9z"/>
	</g>
	<g>
		<path fill="#FFFFFF" d="M254.8,73.8c-6.8,0-12.4-5.6-12.4-12.4V18.6h10.4v42.8c0,1.1,0.9,2,2,2h31.3c1.1,0,2.1-0.9,2.1-2V18.6
			h10.4v42.8c0,6.8-5.6,12.4-12.5,12.4H254.8z"/>
		<path d="M297.1,20.1v41.3c0,6-4.9,10.9-11,10.9h-31.3c-6,0-10.9-4.9-10.9-10.9V20.1h7.4v41.3c0,1.9,1.6,3.5,3.5,3.5h31.3
			c2,0,3.6-1.6,3.6-3.5V20.1H297.1 M300.1,17.1h-3h-7.4h-3v3v41.3c0,0.2-0.3,0.5-0.6,0.5h-31.3c-0.2,0-0.5-0.3-0.5-0.5V20.1v-3h-3
			h-7.4h-3v3v41.3c0,7.7,6.2,13.9,13.9,13.9h31.3c7.7,0,14-6.2,14-13.9V20.1V17.1L300.1,17.1z"/>
	</g>
	<g>
		<path fill="#FFFFFF" d="M375.8,73.8V31c0-1.1-1-2-2.1-2H352c-1.1,0-2,0.9-2,2v42.8h-10.5V31c0-1.1-0.9-2-2-2h-21.8
			c-1.1,0-2,0.9-2,2v42.8h-10.5V18.6h70.4c6.9,0,12.4,5.4,12.4,12.4v42.8H375.8z"/>
		<path d="M373.7,20.1c6.1,0,10.9,4.9,10.9,10.9v41.3h-7.3V31c0-1.9-1.6-3.5-3.6-3.5H352c-2,0-3.5,1.6-3.5,3.5v41.3H341V31
			c0-1.9-1.6-3.5-3.5-3.5h-21.8c-1.9,0-3.5,1.6-3.5,3.5v41.3h-7.5V20.1H373.7 M373.7,17.1h-68.9h-3v3v52.2v3h3h7.5h3v-3V31
			c0-0.2,0.3-0.5,0.5-0.5h21.8c0.2,0,0.5,0.3,0.5,0.5v41.3v3h3h7.5h3v-3V31c0-0.2,0.2-0.5,0.5-0.5h21.7c0.3,0,0.6,0.3,0.6,0.5v41.3
			v3h3h7.3h3v-3V31C387.6,23.2,381.5,17.1,373.7,17.1L373.7,17.1z"/>
	</g>
	<g>
		<path fill="#FFFFFF" d="M473.6,73.8V50.1h-47.2v23.7h-10.3V18.3c0-6.9,5.4-12.3,12.3-12.3h43.2c6.9,0,12.3,5.4,12.3,12.3v55.5
			H473.6z M473.6,39.8V18.3c0-1.1-0.9-2-2-2h-43.2c-1.1,0-2,0.9-2,2v21.5H473.6z"/>
		<path d="M471.6,7.5c6,0,10.8,4.8,10.8,10.8v54h-7.3V48.6h-50.2v23.7h-7.3v-54c0-6,4.8-10.8,10.8-10.8H471.6 M424.9,41.3h50.2v-23
			c0-1.9-1.6-3.5-3.5-3.5h-43.2c-1.9,0-3.5,1.6-3.5,3.5V41.3 M471.6,4.5h-43.2c-7.7,0-13.8,6.1-13.8,13.8v54v3h3h7.3h3v-3V51.6h44.2
			v20.7v3h3h7.3h3v-3v-54C485.4,10.6,479.4,4.5,471.6,4.5L471.6,4.5z M427.9,38.3v-20c0-0.2,0.3-0.5,0.5-0.5h43.2
			c0.2,0,0.5,0.3,0.5,0.5v20H427.9L427.9,38.3z"/>
	</g>
	<g>
		<path fill="#FFFFFF" d="M536.8,73.8V31c0-1.1-0.9-2-2-2h-31.3c-1.1,0-2.1,0.9-2.1,2v42.8H491V18.6h43.8c6.8,0,12.4,5.6,12.4,12.4
			v42.8H536.8z"/>
		<path d="M534.8,20.1c6,0,10.9,4.9,10.9,10.9v41.3h-7.4V31c0-1.9-1.6-3.5-3.5-3.5h-31.3c-2,0-3.6,1.6-3.6,3.5v41.3h-7.4V20.1H534.8
			 M534.8,17.1h-42.3h-3v3v52.2v3h3h7.4h3v-3V31c0-0.2,0.3-0.5,0.6-0.5h31.3c0.2,0,0.5,0.3,0.5,0.5v41.3v3h3h7.4h3v-3V31
			C548.7,23.3,542.5,17.1,534.8,17.1L534.8,17.1z"/>
	</g>
	<g>
		<path fill="#FFFFFF" d="M565.9,73.8c-6.9,0-12.4-5.4-12.4-12.4V1.5h10.4v17.1h22.6V29h-22.6v32.4c0,1.1,0.9,2,2,2h20.6v10.4H565.9
			z"/>
		<path d="M562.4,3v17.1H585v7.4h-22.6v33.9c0,1.9,1.6,3.5,3.5,3.5H585v7.4h-19.1c-6.1,0-10.9-4.9-10.9-10.9V3H562.4 M565.4,0h-3
			h-7.4h-3v3v58.4c0,7.8,6.1,13.9,13.9,13.9H585h3v-3v-7.4v-3h-3h-19.1c-0.2,0-0.5-0.3-0.5-0.5V30.5H585h3v-3v-7.4v-3h-3h-19.6V3V0
			L565.4,0z"/>
	</g>
	<g>
		<path fill="#FFFFFF" d="M602.7,73.8c-6.8,0-12.4-5.6-12.4-12.4V31c0-6.8,5.6-12.4,12.4-12.4H634c6.9,0,12.5,5.6,12.5,12.4v20.4
			h-45.8v10c0,1.1,0.9,2,2,2h43.8v10.4H602.7z M636,41V31c0-1.1-0.9-2-2-2h-31.3c-1.1,0-2,0.9-2,2v10H636z"/>
		<path d="M634,20.1c6.1,0,11,4.9,11,10.9v18.9h-45.8v11.5c0,1.9,1.6,3.5,3.5,3.5H645v7.4h-42.3c-6,0-10.9-4.9-10.9-10.9V31
			c0-6,4.9-10.9,10.9-10.9H634 M599.2,42.5h38.3V31c0-1.9-1.5-3.5-3.5-3.5h-31.3c-1.9,0-3.5,1.6-3.5,3.5V42.5 M634,17.1h-31.3
			c-7.7,0-13.9,6.2-13.9,13.9v30.4c0,7.7,6.2,13.9,13.9,13.9H645h3v-3v-7.4v-3h-3h-42.3c-0.2,0-0.5-0.3-0.5-0.5v-8.5H645h3v-3V31
			C648,23.3,641.7,17.1,634,17.1L634,17.1z M602.2,39.5V31c0-0.2,0.3-0.5,0.5-0.5H634c0.3,0,0.5,0.3,0.5,0.5v8.5H602.2L602.2,39.5z"
			/>
	</g>
</g>
</svg>
