<?xml version="1.0" encoding="utf-8"?>
<!-- Generator: Adobe Illustrator 19.1.0, SVG Export Plug-In . SVG Version: 6.00 Build 0)  -->
<svg version="1.1" id="Layer_1" xmlns="http://www.w3.org/2000/svg" xmlns:xlink="http://www.w3.org/1999/xlink" x="0px" y="0px"
	 viewBox="0 0 305.7 300" enable-background="new 0 0 305.7 300" xml:space="preserve">
	
<g>
	<polygon fill="none" stroke="#000000" stroke-width="5" stroke-miterlimit="10" points="106.5,164.8 106.5,204.9 71.8,224.9 
		37.2,204.8 37.2,164.8 71.8,144.8 	"/>
	<polygon fill="none" stroke="#00A79D" stroke-width="5" stroke-miterlimit="10" points="71.8,224.9 71.8,264.9 37.2,284.9 
		2.5,264.9 2.5,224.9 37.2,204.9 	"/>
	<polygon fill="none" stroke="#000000" stroke-width="5" stroke-miterlimit="10" points="303.2,224.9 303.2,264.9 268.5,284.9 
		233.8,264.9 233.8,224.9 268.5,204.9 	"/>
	<polygon fill="none" stroke="#000000" stroke-width="5" stroke-miterlimit="10" points="233.8,224.9 233.8,264.9 199.2,284.9 
		164.5,264.9 164.5,224.9 199.2,204.9 	"/>
	<polygon fill="none" stroke="#000000" stroke-width="5" stroke-miterlimit="10" points="175.8,164.8 175.8,204.9 141.2,224.9 
		106.5,204.8 106.5,164.8 141.2,144.8 	"/>
	<polygon fill="none" stroke="#000000" stroke-width="5" stroke-miterlimit="10" points="141.2,104.9 141.2,144.9 106.5,164.9 
		71.8,144.9 71.8,104.9 106.5,84.9 	"/>
	<polygon fill="none" stroke="#000000" stroke-width="5" stroke-miterlimit="10" points="233.8,104.9 233.8,144.9 199.2,164.9 
		164.5,144.9 164.5,104.9 199.2,84.9 	"/>
	<polygon fill="none" stroke="#939598" stroke-width="5" stroke-miterlimit="10" points="268.5,164.8 268.5,204.9 233.8,224.9 
		199.2,204.8 199.2,164.8 233.8,144.8 	"/>
	<polygon fill="none" stroke="#000000" stroke-width="5" stroke-miterlimit="10" points="71.8,104.9 71.8,144.9 37.2,164.9 
		2.5,144.9 2.5,104.9 37.2,84.9 	"/>
	<polygon fill="none" stroke="#000000" stroke-width="5" stroke-miterlimit="10" points="268.5,45.1 268.5,85.1 233.8,105.1 
		199.2,85.1 199.2,45.1 233.8,25.1 	"/>
	<polyline fill="none" stroke="#000000" stroke-width="5" stroke-miterlimit="10" points="129.8,300 129.8,284.7 164.5,264.7 
		199.2,284.8 199.2,300 	"/>
	<polyline fill="none" stroke="#000000" stroke-width="5" stroke-miterlimit="10" points="199.2,0 199.2,20 164.5,40 129.8,20 
		129.8,0 	"/>
	<polygon fill="none" stroke="#27AAE1" class="blueCubes" stroke-width="5" stroke-miterlimit="10" points="106.5,45.1 106.5,85.1 71.8,105.1 
		37.2,85.1 37.2,45.1 71.8,25.1 	"/>
</g>
<line fill="none" stroke="#27AAE1" stroke-width="5" stroke-miterlimit="10" x1="37.2" y1="45.1" x2="71.8" y2="65.1"/>
<line fill="none" stroke="#27AAE1" stroke-width="5" stroke-miterlimit="10" x1="71.8" y1="65.1" x2="106.5" y2="45.1"/>
<line fill="none" stroke="#27AAE1" stroke-width="5" stroke-miterlimit="10" x1="71.8" y1="65.1" x2="71.8" y2="104.9"/>
<path fill="none" stroke="#00A79D" stroke-width="5" stroke-miterlimit="10" d="M35.7,244.9"/>
<path fill="none" stroke="#00A79D" stroke-width="5" stroke-miterlimit="10" d="M2.5,224.9"/>
<path fill="none" stroke="#00A79D" stroke-width="5" stroke-miterlimit="10" d="M69.8,224.9"/>
<path fill="none" stroke="#00A79D" stroke-width="5" stroke-miterlimit="10" d="M35.7,244.9"/>
<path fill="none" stroke="#00A79D" stroke-width="5" stroke-miterlimit="10" d="M35.7,284"/>
<path fill="none" stroke="#00A79D" stroke-width="5" stroke-miterlimit="10" d="M38.7,248.8"/>
<line fill="none" stroke="#00A79D" stroke-width="5" stroke-miterlimit="10" x1="2.5" y1="224.9" x2="37.2" y2="244.9"/>
<line fill="none" stroke="#00A79D" stroke-width="5" stroke-miterlimit="10" x1="37.2" y1="244.9" x2="69.8" y2="224.9"/>
<line fill="none" stroke="#00A79D" stroke-width="5" stroke-miterlimit="10" x1="37.2" y1="244.9" x2="37.2" y2="284.9"/>
<line fill="none" stroke="#939598" stroke-width="5" stroke-miterlimit="10" x1="199.2" y1="164.9" x2="233.8" y2="184.8"/>
<line fill="none" stroke="#939598" stroke-width="5" stroke-miterlimit="10" x1="233.8" y1="184.8" x2="268.5" y2="164.8"/>
<line fill="none" stroke="#939598" stroke-width="5" stroke-miterlimit="10" x1="233.8" y1="184.8" x2="233.8" y2="224.9"/>
</svg>
